<?xml version="1.0"?>
<svg version="1.1" xmlns="http://www.w3.org/2000/svg" width="400px" height="116px" style=""><path fill="#2763a8" d="M145.1376953125,100.931640625q-0.0498046875-1.494140625-0.0498046875-2.98828125q0-4.681640625,0.498046875-9.4130859375q0.59765625-6.275390625,0.796875-12.3515625q0.19921875-7.1220703125,0.59765625-14.7919921875q0.2490234375-4.18359375,0.2490234375-8.267578125q0-3.3369140625-0.1494140625-6.6240234375q0.498046875-1.1455078125,1.31982421875-1.5439453125t2.06689453125-0.3984375q0.59765625,0,1.27001953125,0.099609375t1.17041015625,0.498046875q0.697265625,0.099609375,1.71826171875,0.19921875t1.56884765625,0.59765625q0.19921875,0.298828125,1.02099609375,2.0419921875t1.9423828125,4.2333984375t2.3408203125,5.40380859375t2.3408203125,5.5283203125t1.9423828125,4.60693359375t1.02099609375,2.490234375q4.681640625-8.466796875,9.1640625-17.40673828125t9.8115234375-16.85888671875q0.498046875-0.697265625,1.71826171875-1.02099609375t2.01708984375-0.32373046875q2.1416015625,0,3.11279296875,1.02099609375t1.27001953125,2.61474609375q0.19921875,0.99609375,0.2490234375,2.1416015625q0.0498046875,0.59765625-0.0498046875,1.2451171875q-0.19921875,1.8427734375-0.19921875,3.486328125q0,11.6044921875-0.796875,23.03466796875t-1.4443359375,23.08447265625q-0.099609375,2.390625-0.099609375,4.98046875t0.099609375,5.37890625q0.0498046875,0.99609375,0.0498046875,1.9423828125q0,4.3828125-0.7470703125,8.16796875q-0.697265625,1.1455078125-2.291015625,1.4443359375t-2.689453125,0.298828125q-2.3408203125,0-4.482421875-1.095703125l-0.5478515625-0.6474609375l-0.19921875-0.796875t-0.099609375-0.796875q0-7.2216796875,0.52294921875-14.54296875t1.17041015625-14.61767578125t1.36962890625-14.56787109375t1.22021484375-14.54296875q-2.9384765625,4.880859375-5.70263671875,9.93603515625t-5.20458984375,10.28466796875q-0.896484375,2.0419921875-1.71826171875,4.3828125t-1.96728515625,4.18359375q-0.59765625,0.896484375-2.01708984375,1.095703125t-2.46533203125,0.19921875q-0.99609375,0-2.06689453125-0.3486328125t-1.46923828125-1.494140625q-1.8427734375-5.6279296875-3.9345703125-11.0068359375t-4.2333984375-10.9072265625q0,3.685546875,0.1494140625,9.53759765625t0.1494140625,12.12744140625t-0.19921875,12.0029296875t-0.9462890625,9.064453125q-0.19921875,1.2451171875-1.61865234375,1.5439453125t-2.46533203125,0.298828125q-0.796875,0-1.51904296875-0.099609375t-1.41943359375-0.3984375z M204.38883789062,94.4072265625q0-1.8427734375,0.07470703125-5.40380859375t0.52294921875-7.24658203125t1.46923828125-6.673828125t3.06298828125-3.8349609375q0.498046875-0.19921875,1.61865234375-0.3486328125t2.2412109375-0.099609375t1.9921875,0.3984375t0.87158203125,1.294921875q0,0.19921875-0.19921875,0.5478515625t-1.0458984375,1.095703125q-1.5439453125,4.283203125-1.892578125,8.5166015625t-0.3486328125,8.7158203125q0,2.6396484375,0.17431640625,5.279296875t0.57275390625,5.3291015625q0.796875-1.1455078125,1.61865234375-3.4365234375t1.7431640625-5.00537109375t1.892578125-5.50341796875t2.19140625-5.080078125t2.689453125-3.78515625t3.31201171875-1.494140625q2.0419921875,0,3.41162109375,2.56494140625t2.5400390625,5.9267578125t2.19140625,6.8232421875t2.46533203125,5.30419921875q0.697265625-0.697265625,1.12060546875-1.81787109375t0.67236328125-2.41552734375t0.298828125-2.56494140625t0.0498046875-2.16650390625q0-2.2412109375-0.67236328125-4.85595703125t-1.41943359375-4.90576171875t-1.41943359375-3.85986328125t-0.67236328125-1.81787109375q0-0.3984375,0.42333984375-0.6474609375t0.97119140625-0.3984375t1.12060546875-0.19921875t0.87158203125-0.0498046875q1.8427734375,0,3.16259765625,2.0419921875t2.091796875,4.7314453125t1.12060546875,5.45361328125t0.3486328125,4.30810546875q0,1.9423828125-0.298828125,4.1337890625t-1.12060546875,4.05908203125t-2.41552734375,3.11279296875t-4.0341796875,1.2451171875q-2.9384765625,0-4.8310546875-1.6435546875t-3.06298828125-3.984375t-1.8427734375-5.10498046875t-1.27001953125-5.00537109375q-1.1455078125,2.6396484375-2.091796875,6.673828125t-2.390625,7.9189453125t-3.685546875,6.6240234375t-5.8271484375,2.7392578125t-5.10498046875-1.76806640625t-2.41552734375-4.85595703125l0.099609375,0.099609375q-0.59765625-2.2412109375-0.77197265625-4.482421875t-0.17431640625-4.482421875z M255.92025390625,100.931640625q-0.0498046875-1.494140625-0.0498046875-2.98828125q0-4.681640625,0.498046875-9.4130859375q0.59765625-6.275390625,0.796875-12.3515625q0.19921875-7.1220703125,0.59765625-14.7919921875q0.2490234375-4.18359375,0.2490234375-8.267578125q0-3.3369140625-0.1494140625-6.6240234375q0.498046875-1.1455078125,1.31982421875-1.5439453125t2.06689453125-0.3984375q0.59765625,0,1.27001953125,0.099609375t1.17041015625,0.498046875q0.697265625,0.099609375,1.71826171875,0.19921875t1.56884765625,0.59765625q0.19921875,0.298828125,1.02099609375,2.0419921875t1.9423828125,4.2333984375t2.3408203125,5.40380859375t2.3408203125,5.5283203125t1.9423828125,4.60693359375t1.02099609375,2.490234375q4.681640625-8.466796875,9.1640625-17.40673828125t9.8115234375-16.85888671875q0.498046875-0.697265625,1.71826171875-1.02099609375t2.01708984375-0.32373046875q2.1416015625,0,3.11279296875,1.02099609375t1.27001953125,2.61474609375q0.19921875,0.99609375,0.2490234375,2.1416015625q0.0498046875,0.59765625-0.0498046875,1.2451171875q-0.19921875,1.8427734375-0.19921875,3.486328125q0,11.6044921875-0.796875,23.03466796875t-1.4443359375,23.08447265625q-0.099609375,2.390625-0.099609375,4.98046875t0.099609375,5.37890625q0.0498046875,0.99609375,0.0498046875,1.9423828125q0,4.3828125-0.7470703125,8.16796875q-0.697265625,1.1455078125-2.291015625,1.4443359375t-2.689453125,0.298828125q-2.3408203125,0-4.482421875-1.095703125l-0.5478515625-0.6474609375l-0.19921875-0.796875t-0.099609375-0.796875q0-7.2216796875,0.52294921875-14.54296875t1.17041015625-14.61767578125t1.36962890625-14.56787109375t1.22021484375-14.54296875q-2.9384765625,4.880859375-5.70263671875,9.93603515625t-5.20458984375,10.28466796875q-0.896484375,2.0419921875-1.71826171875,4.3828125t-1.96728515625,4.18359375q-0.59765625,0.896484375-2.01708984375,1.095703125t-2.46533203125,0.19921875q-0.99609375,0-2.06689453125-0.3486328125t-1.46923828125-1.494140625q-1.8427734375-5.6279296875-3.9345703125-11.0068359375t-4.2333984375-10.9072265625q0,3.685546875,0.1494140625,9.53759765625t0.1494140625,12.12744140625t-0.19921875,12.0029296875t-0.9462890625,9.064453125q-0.19921875,1.2451171875-1.61865234375,1.5439453125t-2.46533203125,0.298828125q-0.796875,0-1.51904296875-0.099609375t-1.41943359375-0.3984375z"/><path fill="#" d=""/></svg>
